<?xml version="1.0" encoding="utf-8"?>
<!-- Generator: Adobe Illustrator 15.0.0, SVG Export Plug-In . SVG Version: 6.00 Build 0)  -->
<!DOCTYPE svg PUBLIC "-//W3C//DTD SVG 1.1//EN" "http://www.w3.org/Graphics/SVG/1.1/DTD/svg11.dtd">
<svg version="1.1" id="Layer_1" xmlns="http://www.w3.org/2000/svg" xmlns:xlink="http://www.w3.org/1999/xlink" x="0px" y="0px"
	 width="32px" height="32px" viewBox="-399.5 200.5 32 32" enable-background="new -399.5 200.5 32 32" xml:space="preserve">
<g id="Layer_1_1_" display="none">
	<path display="inline" fill="none" stroke="#707070" stroke-miterlimit="10" d="M-16.001,55.875l-6.951,4.562L-23,56h-3.492
		C-27.601,56-29,54.859-29,53.75V39.258C-29,38.148-27.601,37-26.492,37h22.5C-2.882,37-2,38.148-2,39.258v14.5
		C-2,54.867-2.891,56-4,56h-12L-16.001,55.875z"/>
</g>
<g id="Layer_2">
	<path fill="none" stroke="#707070" stroke-miterlimit="10" d="M-391,228.982l6.036-5.941v-0.059H-372c1.104,0,2-0.896,2-2v-15
		c0-1.104-0.896-2-2-2h-23c-1.104,0-2,0.896-2,2v15c0,1.104,0.896,2,2,2h4v6.438"/>
</g>
</svg>
