<?xml version="1.0" encoding="utf-8"?>
<!-- Generator: Adobe Illustrator 15.0.0, SVG Export Plug-In . SVG Version: 6.00 Build 0)  -->
<!DOCTYPE svg PUBLIC "-//W3C//DTD SVG 1.1//EN" "http://www.w3.org/Graphics/SVG/1.1/DTD/svg11.dtd">
<svg version="1.1" id="Layer_1" xmlns="http://www.w3.org/2000/svg" xmlns:xlink="http://www.w3.org/1999/xlink" x="0px" y="0px"
	 width="32px" height="32px" viewBox="-399.5 200.5 32 32" enable-background="new -399.5 200.5 32 32" xml:space="preserve">
<g>
	<rect x="-396" y="201.043" fill="none" stroke="#707070" stroke-miterlimit="10" width="26" height="30"/>
	<line fill="none" stroke="#707070" stroke-miterlimit="10" x1="-391" y1="201.543" x2="-391" y2="230.543"/>
	<line fill="none" stroke="#707070" stroke-miterlimit="10" x1="-390.5" y1="216.043" x2="-375.5" y2="216.043"/>
	<line fill="none" stroke="#707070" stroke-miterlimit="10" x1="-375" y1="230.543" x2="-375" y2="201.543"/>
	<line fill="none" stroke="#707070" stroke-miterlimit="10" x1="-374.5" y1="206.043" x2="-370.5" y2="206.043"/>
	<line fill="none" stroke="#707070" stroke-miterlimit="10" x1="-374.5" y1="211.043" x2="-370.5" y2="211.043"/>
	<line fill="none" stroke="#707070" stroke-miterlimit="10" x1="-374.5" y1="216.043" x2="-370.5" y2="216.043"/>
	<line fill="none" stroke="#707070" stroke-miterlimit="10" x1="-374.5" y1="221.043" x2="-370.5" y2="221.043"/>
	<line fill="none" stroke="#707070" stroke-miterlimit="10" x1="-374.5" y1="226.043" x2="-370.5" y2="226.043"/>
	<line fill="none" stroke="#707070" stroke-miterlimit="10" x1="-395.5" y1="206.043" x2="-391.5" y2="206.043"/>
	<line fill="none" stroke="#707070" stroke-miterlimit="10" x1="-395.5" y1="211.043" x2="-391.5" y2="211.043"/>
	<line fill="none" stroke="#707070" stroke-miterlimit="10" x1="-395.5" y1="216.043" x2="-391.5" y2="216.043"/>
	<line fill="none" stroke="#707070" stroke-miterlimit="10" x1="-395.5" y1="221.043" x2="-391.5" y2="221.043"/>
	<line fill="none" stroke="#707070" stroke-miterlimit="10" x1="-395.5" y1="226.043" x2="-391.5" y2="226.043"/>
</g>
</svg>
